<?xml version="1.0" encoding="iso-8859-1"?>
<!-- Generator: Adobe Illustrator 21.0.2, SVG Export Plug-In . SVG Version: 6.00 Build 0)  -->
<svg xmlns="http://www.w3.org/2000/svg" xmlns:xlink="http://www.w3.org/1999/xlink" version="1.1" id="Layer_1" x="0px" y="0px" viewBox="0 0 40 40" style="enable-background:new 0 0 40 40;" xml:space="preserve">
<g>
	<path style="fill:#DFF0FE;" d="M10.5,25.5c-1.545,0-3-2.347-3-4.167c0-1.101,0.51-1.833,3-1.833c1.654,0,3,1.346,3,3   S12.154,25.5,10.5,25.5z"/>
	<g>
		<path style="fill:#4788C7;" d="M10.5,20c1.379,0,2.5,1.121,2.5,2.5S11.879,25,10.5,25C9.293,25,8,22.848,8,21.333    C8,20.739,8,20,10.5,20 M10.5,19C8.567,19,7,19.4,7,21.333C7,23.266,8.567,26,10.5,26s3.5-1.567,3.5-3.5    C14,20.567,12.433,19,10.5,19L10.5,19z"/>
	</g>
</g>
<g>
	<path style="fill:#DFF0FE;" d="M29.5,25.5c-1.654,0-3-1.346-3-3s1.346-3,3-3c2.49,0,3,0.733,3,1.833   C32.5,23.153,31.045,25.5,29.5,25.5z"/>
	<g>
		<path style="fill:#4788C7;" d="M29.5,20c2.5,0,2.5,0.739,2.5,1.333C32,22.848,30.707,25,29.5,25c-1.379,0-2.5-1.121-2.5-2.5    S28.121,20,29.5,20 M29.5,19c-1.933,0-3.5,1.567-3.5,3.5s1.567,3.5,3.5,3.5s3.5-2.734,3.5-4.667C33,19.4,31.433,19,29.5,19    L29.5,19z"/>
	</g>
</g>
<g>
	<g>
		<path style="fill:#FFFFFF;" d="M20,36.5c-1.134,0-2.183-0.476-2.954-1.341l-0.082-0.093l-0.117-0.043    C13.11,33.634,10.5,29.924,10.5,26V13c0-2.313,2.187-4.5,4.5-4.5h10c2.313,0,4.5,2.187,4.5,4.5v13c0,3.924-2.61,7.634-6.347,9.023    l-0.117,0.043l-0.082,0.093C22.183,36.024,21.134,36.5,20,36.5z"/>
	</g>
	<g>
		<path style="fill:#4788C7;" d="M25,9c2.056,0,4,1.944,4,4v13c0,3.719-2.476,7.237-6.022,8.555l-0.233,0.086l-0.165,0.185    C21.905,35.583,20.989,36,20,36s-1.905-0.417-2.58-1.174l-0.165-0.185l-0.233-0.086C13.476,33.237,11,29.719,11,26V13    c0-2.056,1.944-4,4-4H25 M25,8H15c-2.591,0-5,2.409-5,5v13c0,4.273,2.826,8.062,6.673,9.492C17.493,36.411,18.672,37,20,37    s2.507-0.59,3.327-1.508C27.174,34.062,30,30.273,30,26V13C30,10.409,27.591,8,25,8L25,8z"/>
	</g>
</g>
<g>
	<path style="fill:#B6DCFE;" d="M29.5,23.5v-5.459c0-5.125-4.31-6.505-4.354-6.519l-0.331-0.102l-0.212,0.275   C24.574,11.734,21.612,15.5,16,15.5c-2.321,0-5.5,0-5.5,4.5v3.5h-0.145C9.936,22.26,8.5,17.749,8.5,14   c0-5.09,3.717-10.5,10.605-10.5c4.166,0,6.142,2.334,6.496,2.802L25.751,6.5H26c1.427,0,5.5,1.378,5.5,7.5   c0,2.966-1.462,8.114-1.872,9.5H29.5z"/>
	<g>
		<path style="fill:#4788C7;" d="M19.105,4c3.93,0,5.768,2.168,6.097,2.603L25.502,7H26c1.297,0,5,1.286,5,7    c0,1.711-0.504,4.186-1,6.208V18.04c0-4.392-3.079-6.497-4.707-6.996l-0.666-0.204l-0.422,0.553C24.178,11.429,21.39,15,16,15    c-2.389,0-6,0-6,5v0.561C9.505,18.669,9,16.199,9,14C9,9.031,12.471,4,19.105,4 M19.105,3C11.655,3,8,8.861,8,14    c0,4.513,2,10,2,10h1c0,0,0-2.758,0-4c0-3.815,2.283-4,5-4c5.947,0,9-4,9-4s4,1.227,4,6.04c0,1.366,0,5.96,0,5.96h1    c0,0,2-6.452,2-10c0-6.248-4.117-8-6-8C25.525,5.371,23.395,3,19.105,3L19.105,3z"/>
	</g>
</g>
<circle style="fill:#4788C7;" cx="24.75" cy="22.25" r="1.25"/>
<circle style="fill:#4788C7;" cx="15.25" cy="22.25" r="1.25"/>
<g>
	<path style="fill:#B6DCFE;" d="M20,36.5c-1.134,0-2.183-0.476-2.954-1.341l-0.082-0.093l-0.117-0.043   C13.11,33.634,10.5,29.924,10.5,26v-0.393l-0.382-0.161c-0.759-0.185-1.514-0.922-2.03-1.946h23.824   c-0.517,1.024-1.271,1.761-2.03,1.946L29.5,25.54v0.393c0,3.992-2.61,7.702-6.347,9.091l-0.117,0.043l-0.082,0.093   C22.183,36.024,21.134,36.5,20,36.5z"/>
	<path style="fill:#4788C7;" d="M31.011,24c-0.383,0.504-0.828,0.858-1.248,0.961L29,25.147v0.785V26   c0,3.719-2.476,7.237-6.022,8.555l-0.233,0.086l-0.165,0.185C21.905,35.583,20.989,36,20,36s-1.905-0.417-2.58-1.174l-0.165-0.185   l-0.233-0.086C13.476,33.237,11,29.719,11,26v-0.068v-0.785l-0.763-0.186C9.817,24.858,9.372,24.504,8.989,24H31.011 M32.67,23   H7.33c0.487,1.352,1.476,2.64,2.67,2.932V26c0,4.273,2.826,8.062,6.673,9.492C17.493,36.411,18.672,37,20,37   s2.507-0.59,3.327-1.508C27.174,34.062,30,30.273,30,26v-0.068C31.194,25.64,32.183,24.352,32.67,23L32.67,23z"/>
</g>
<path style="fill:#4788C7;" d="M37,25H3c-0.552,0-1-0.448-1-1v0c0-0.552,0.448-1,1-1h34c0.552,0,1,0.448,1,1v0  C38,24.552,37.552,25,37,25z"/>
<g>
	<polygon style="fill:#4788C7;" points="3,7 3,3 7,3 7,2 2,2 2,7  "/>
	<polygon style="fill:#4788C7;" points="37,7 38,7 38,2 33,2 33,3 37,3  "/>
	<polygon style="fill:#4788C7;" points="37,33 37,37 33,37 33,38 38,38 38,33  "/>
	<polygon style="fill:#4788C7;" points="3,33 2,33 2,38 7,38 7,37 3,37  "/>
</g>
<path style="fill:#4788C7;" d="M37.5,6L37.5,6C37.775,6,38,6.225,38,6.5v1C38,7.775,37.775,8,37.5,8l0,0C37.225,8,37,7.775,37,7.5  v-1C37,6.225,37.225,6,37.5,6z"/>
<path style="fill:#4788C7;" d="M37.5,32L37.5,32c0.275,0,0.5,0.225,0.5,0.5v1c0,0.275-0.225,0.5-0.5,0.5l0,0  c-0.275,0-0.5-0.225-0.5-0.5v-1C37,32.225,37.225,32,37.5,32z"/>
<path style="fill:#4788C7;" d="M2.5,32L2.5,32C2.775,32,3,32.225,3,32.5v1C3,33.775,2.775,34,2.5,34h0C2.225,34,2,33.775,2,33.5v-1  C2,32.225,2.225,32,2.5,32z"/>
<path style="fill:#4788C7;" d="M2.5,6L2.5,6C2.775,6,3,6.225,3,6.5v1C3,7.775,2.775,8,2.5,8h0C2.225,8,2,7.775,2,7.5v-1  C2,6.225,2.225,6,2.5,6z"/>
<path style="fill:#4788C7;" d="M6.5,2h1C7.775,2,8,2.225,8,2.5v0C8,2.775,7.775,3,7.5,3h-1C6.225,3,6,2.775,6,2.5v0  C6,2.225,6.225,2,6.5,2z"/>
<path style="fill:#4788C7;" d="M32.5,2h1C33.775,2,34,2.225,34,2.5v0C34,2.775,33.775,3,33.5,3h-1C32.225,3,32,2.775,32,2.5v0  C32,2.225,32.225,2,32.5,2z"/>
<path style="fill:#4788C7;" d="M6.5,37h1C7.775,37,8,37.225,8,37.5l0,0C8,37.775,7.775,38,7.5,38h-1C6.225,38,6,37.775,6,37.5l0,0  C6,37.225,6.225,37,6.5,37z"/>
<path style="fill:#4788C7;" d="M32.5,37h1c0.275,0,0.5,0.225,0.5,0.5l0,0c0,0.275-0.225,0.5-0.5,0.5h-1c-0.275,0-0.5-0.225-0.5-0.5  l0,0C32,37.225,32.225,37,32.5,37z"/>
</svg>
