<?xml version="1.0" encoding="iso-8859-1"?>
<!-- Generator: Adobe Illustrator 21.0.2, SVG Export Plug-In . SVG Version: 6.00 Build 0)  -->
<svg xmlns="http://www.w3.org/2000/svg" xmlns:xlink="http://www.w3.org/1999/xlink" version="1.1" id="Layer_1" x="0px" y="0px" viewBox="0 0 40 40" style="enable-background:new 0 0 40 40;" xml:space="preserve">
<path style="fill:none;stroke:#4788C7;stroke-linecap:round;stroke-linejoin:round;stroke-miterlimit:10;" d="M9.067,17.079  c-1.059,2.016-1.602,4.257-1.586,6.59"/>
<path style="fill:none;stroke:#4788C7;stroke-linecap:round;stroke-linejoin:round;stroke-miterlimit:10;" d="M18.644,7.823  c-3.235,0.578-6.195,2.122-8.529,4.483c-0.257,0.246-1.793,1.766-2.841,3.887c-1.208,2.445-1.811,4.966-1.793,7.492"/>
<g>
	<polygon style="fill:#4788C7;" points="3,7 3,3 7,3 7,2 2,2 2,7  "/>
	<polygon style="fill:#4788C7;" points="37,7 38,7 38,2 33,2 33,3 37,3  "/>
	<polygon style="fill:#4788C7;" points="37,33 37,37 33,37 33,38 38,38 38,33  "/>
	<polygon style="fill:#4788C7;" points="3,33 2,33 2,38 7,38 7,37 3,37  "/>
</g>
<path style="fill:none;stroke:#4788C7;stroke-linecap:round;stroke-linejoin:round;stroke-miterlimit:10;" d="M12.464,19.201  c-0.654,1.357-0.994,2.856-0.983,4.407"/>
<path style="fill:none;stroke:#4788C7;stroke-linecap:round;stroke-linejoin:round;stroke-miterlimit:10;" d="M31.549,23.614  c-0.021-0.09-0.043-0.22-0.056-0.401l-0.077-0.811c-0.572-4.974-4.829-8.864-9.935-8.864l0,0h-0.004  c-2.719,0.019-5.242,1.077-7.118,2.979"/>
<path style="fill:none;stroke:#4788C7;stroke-linecap:round;stroke-linejoin:round;stroke-miterlimit:10;" d="M24.674,12.004  c3.235,0.901,5.931,3.129,7.457,6.054c0.705,1.352,1.16,2.853,1.303,4.441"/>
<path style="fill:none;stroke:#4788C7;stroke-linecap:round;stroke-linejoin:round;stroke-miterlimit:10;" d="M35.003,19.938  c-0.261-0.964-0.628-1.901-1.1-2.805c-1.796-3.445-4.965-6.017-8.693-7.055"/>
<path style="fill:none;stroke:#4788C7;stroke-linecap:round;stroke-linejoin:round;stroke-miterlimit:10;" d="M9.483,23.354  c0.044-2.558,0.874-4.973,2.41-7.007c0.316-0.419,0.667-0.825,1.042-1.205c2.252-2.284,5.281-3.554,8.529-3.576"/>
<path style="fill:none;stroke:#98CCFD;stroke-linecap:round;stroke-linejoin:round;stroke-miterlimit:10;" d="M9.73,26.5  c0.227,1.492,0.658,3.398,1.473,5.476"/>
<path style="fill:none;stroke:#98CCFD;stroke-linecap:round;stroke-linejoin:round;stroke-miterlimit:10;" d="M7.482,23.669  C7.49,24.56,7.6,26.946,8.433,29.968"/>
<path style="fill:none;stroke:#4788C7;stroke-linecap:round;stroke-linejoin:round;stroke-miterlimit:10;" d="M30.516,12.903  c-2.448-2.079-5.613-3.336-9.052-3.336l0,0h-0.007l-0.007,0c-3.783,0.026-7.313,1.507-9.94,4.172"/>
<path style="fill:none;stroke:#98CCFD;stroke-linecap:round;stroke-linejoin:round;stroke-miterlimit:10;" d="M5.481,23.684  c0.006,0.649,0.061,2.028,0.366,3.844"/>
<path style="fill:none;stroke:#4788C7;stroke-linecap:round;stroke-linejoin:round;stroke-miterlimit:10;" d="M31.808,11.377  c-2.894-2.457-6.574-3.81-10.361-3.81l0,0h-0.005l-0.005,0"/>
<path style="fill:none;stroke:#4788C7;stroke-linecap:round;stroke-miterlimit:10;" d="M5.481,15.306  c1.153-2.334,2.777-3.991,3.248-4.443C12.063,7.49,16.582,5.6,21.425,5.567c4.278,0,8.422,1.522,11.678,4.285"/>
<path style="fill:none;stroke:#98CCFD;stroke-linecap:round;stroke-linejoin:round;stroke-miterlimit:10;" d="M28.498,33.185  c-1.377-0.344-2.483-0.925-3.371-1.635"/>
<path style="fill:none;stroke:#98CCFD;stroke-linecap:round;stroke-linejoin:round;stroke-miterlimit:10;" d="M21.066,29.529  c0.951,1.874,2.479,3.748,4.934,4.891"/>
<path style="fill:none;stroke:#4788C7;stroke-linecap:round;stroke-linejoin:round;stroke-miterlimit:10;" d="M23.5,23.509  c-0.012-1.092-0.909-1.981-2-1.981l0,0h-0.004c-0.545,0.004-1.046,0.215-1.421,0.596c-0.375,0.38-0.579,0.884-0.576,1.418"/>
<path style="fill:none;stroke:#98CCFD;stroke-linecap:round;stroke-linejoin:round;stroke-miterlimit:10;" d="M29.498,23.354  c0.098,1.377,0.64,2.125,1.61,2.222c0.908,0.091,1.749,0.38,2.483,0.819"/>
<path style="fill:none;stroke:#4788C7;stroke-linecap:round;stroke-linejoin:round;stroke-miterlimit:10;" d="M21.5,19.529  L21.5,19.529h-0.004c-1.089,0.008-2.095,0.431-2.845,1.192c-0.75,0.761-1.159,1.768-1.151,2.836"/>
<path style="fill:none;stroke:#4788C7;stroke-linecap:round;stroke-linejoin:round;stroke-miterlimit:10;" d="M25.5,23.489  c-0.009-0.892-0.314-1.715-0.82-2.378"/>
<path style="fill:none;stroke:#4788C7;stroke-linecap:round;stroke-linejoin:round;stroke-miterlimit:10;" d="M15.705,21.964  c-0.139,0.517-0.208,1.056-0.204,1.606"/>
<path style="fill:none;stroke:#4788C7;stroke-linecap:round;stroke-linejoin:round;stroke-miterlimit:10;" d="M27.5,23.469  c-0.035-3.276-2.726-5.94-6-5.94l0,0h-0.004c-1.633,0.011-3.144,0.646-4.269,1.787"/>
<path style="fill:none;stroke:#98CCFD;stroke-linecap:round;stroke-linejoin:round;stroke-miterlimit:10;" d="M31.5,27.528  c-2.627,0-3.973-1.366-4-4.059"/>
<path style="fill:none;stroke:#98CCFD;stroke-linecap:round;stroke-linejoin:round;stroke-miterlimit:10;" d="M15.006,30.633  c0.457,1.136,1.035,2.289,1.758,3.398"/>
<path style="fill:none;stroke:#4788C7;stroke-linecap:round;stroke-linejoin:round;stroke-miterlimit:10;" d="M19.5,15.785  c-1.398,0.358-2.669,1.084-3.697,2.127c-1.5,1.521-2.318,3.536-2.303,5.673"/>
<path style="fill:none;stroke:#4788C7;stroke-linecap:round;stroke-linejoin:round;stroke-miterlimit:10;" d="M25.448,16.58  c-1.167-0.668-2.516-1.051-3.948-1.051l0,0"/>
<path style="fill:none;stroke:#4788C7;stroke-linecap:round;stroke-linejoin:round;stroke-miterlimit:10;" d="M29.5,23.449  c-0.015-1.41-0.399-2.735-1.059-3.883"/>
<path style="fill:none;stroke:#4788C7;stroke-linecap:round;stroke-linejoin:round;stroke-miterlimit:10;" d="M25.742,8.15  c4.264,1.188,7.883,4.124,9.934,8.058"/>
<path style="fill:none;stroke:#98CCFD;stroke-linecap:round;stroke-linejoin:round;stroke-miterlimit:10;" d="M11.481,23.608  c0.021,2.267,0.65,6.009,2.496,9.643"/>
<path style="fill:none;stroke:#98CCFD;stroke-linecap:round;stroke-linejoin:round;stroke-miterlimit:10;" d="M13.5,23.585  c0.012,1.272,0.236,3.059,0.805,5.018"/>
<path style="fill:none;stroke:#98CCFD;stroke-linecap:round;stroke-linejoin:round;stroke-miterlimit:10;" d="M17.5,23.557  c0.011,1.146,0.242,2.828,0.855,4.633c0.794,2.338,2.227,4.88,4.647,6.721"/>
<path style="fill:none;stroke:#98CCFD;stroke-linecap:round;stroke-linejoin:round;stroke-miterlimit:10;" d="M15.5,23.571  c0.024,2.6,1.046,7.625,4.499,11.345"/>
<path style="fill:none;stroke:#98CCFD;stroke-linecap:round;stroke-linejoin:round;stroke-miterlimit:10;" d="M23.789,30.203  c-2.295-2.897-2.293-6.636-2.293-6.636s0.003,0,0.004,0"/>
<path style="fill:none;stroke:#98CCFD;stroke-linecap:round;stroke-linejoin:round;stroke-miterlimit:10;" d="M19.5,23.542  c0,0.047,0.037,1.828,0.749,4.003"/>
<path style="fill:none;stroke:#98CCFD;stroke-linecap:round;stroke-linejoin:round;stroke-miterlimit:10;" d="M30.512,31.546  c-6.479-0.648-7.004-7.294-7.012-8.037"/>
<path style="fill:none;stroke:#98CCFD;stroke-linecap:round;stroke-linejoin:round;stroke-miterlimit:10;" d="M31.5,29.528  c-5.511,0-5.986-4.622-6-6.039"/>
<path style="fill:none;stroke:#98CCFD;stroke-linecap:round;stroke-linejoin:round;stroke-miterlimit:10;" d="M34.68,24.719  c-0.929-0.569-1.988-0.956-3.131-1.105"/>
<path style="fill:#4788C7;" d="M37,25H3c-0.552,0-1-0.448-1-1v0c0-0.552,0.448-1,1-1h34c0.552,0,1,0.448,1,1v0  C38,24.552,37.552,25,37,25z"/>
<path style="fill:#4788C7;" d="M37.5,6L37.5,6C37.775,6,38,6.225,38,6.5v1C38,7.775,37.775,8,37.5,8l0,0C37.225,8,37,7.775,37,7.5  v-1C37,6.225,37.225,6,37.5,6z"/>
<path style="fill:#4788C7;" d="M37.5,32L37.5,32c0.275,0,0.5,0.225,0.5,0.5v1c0,0.275-0.225,0.5-0.5,0.5l0,0  c-0.275,0-0.5-0.225-0.5-0.5v-1C37,32.225,37.225,32,37.5,32z"/>
<path style="fill:#4788C7;" d="M2.5,32L2.5,32C2.775,32,3,32.225,3,32.5v1C3,33.775,2.775,34,2.5,34h0C2.225,34,2,33.775,2,33.5v-1  C2,32.225,2.225,32,2.5,32z"/>
<path style="fill:#4788C7;" d="M2.5,6L2.5,6C2.775,6,3,6.225,3,6.5v1C3,7.775,2.775,8,2.5,8h0C2.225,8,2,7.775,2,7.5v-1  C2,6.225,2.225,6,2.5,6z"/>
<path style="fill:#4788C7;" d="M6.5,2h1C7.775,2,8,2.225,8,2.5v0C8,2.775,7.775,3,7.5,3h-1C6.225,3,6,2.775,6,2.5v0  C6,2.225,6.225,2,6.5,2z"/>
<path style="fill:#4788C7;" d="M32.5,2h1C33.775,2,34,2.225,34,2.5v0C34,2.775,33.775,3,33.5,3h-1C32.225,3,32,2.775,32,2.5v0  C32,2.225,32.225,2,32.5,2z"/>
<path style="fill:#4788C7;" d="M6.5,37h1C7.775,37,8,37.225,8,37.5l0,0C8,37.775,7.775,38,7.5,38h-1C6.225,38,6,37.775,6,37.5l0,0  C6,37.225,6.225,37,6.5,37z"/>
<path style="fill:#4788C7;" d="M32.5,37h1c0.275,0,0.5,0.225,0.5,0.5l0,0c0,0.275-0.225,0.5-0.5,0.5h-1c-0.275,0-0.5-0.225-0.5-0.5  l0,0C32,37.225,32.225,37,32.5,37z"/>
</svg>
